<?xml version="1.0" encoding="UTF-8"?>
<!-- Created with Inkscape (http://www.inkscape.org/) -->
<svg width="133.33" height="133.33" version="1.1" viewBox="0 0 133.3328 133.33333" xml:space="preserve" xmlns="http://www.w3.org/2000/svg" xmlns:cc="http://creativecommons.org/ns#" xmlns:dc="http://purl.org/dc/elements/1.1/" xmlns:rdf="http://www.w3.org/1999/02/22-rdf-syntax-ns#"><metadata><rdf:RDF><cc:Work rdf:about=""><dc:format>image/svg+xml</dc:format><dc:type rdf:resource="http://purl.org/dc/dcmitype/StillImage"/><dc:title/></cc:Work></rdf:RDF></metadata><defs><clipPath id="clipPath3734"><path d="m50 100c-27.614 0-50-22.386-50-50s22.386-50 50-50 50 22.386 50 50-22.386 50-50 50z"/></clipPath></defs><g transform="matrix(1.3333 0 0 -1.3333 0 133.33)"><g clip-path="url(#clipPath3734)"><g transform="translate(100 50)"><path d="m0 0c0-27.614-22.386-50-50-50s-50 22.386-50 50 22.386 50 50 50 50-22.386 50-50"/></g><g transform="translate(25.081 66.573)"><path d="m0 0 36.972 8.51 1.815 11.804c0.234 1.478-0.742 2.316-2.14 1.803l-35.977-13.156c-1.399-0.513-2.246-2.115-1.912-3.567z" fill="#fff"/></g><g transform="translate(57.034 44.683)"><path d="m0 0c-3.943 0-7.139 3.196-7.139 7.14 0 3.943 3.196 7.139 7.139 7.139s7.14-3.196 7.14-7.139c0-3.944-3.197-7.14-7.14-7.14m31.021-1.302c-2.5 2.427-3.817 3.159-6.304 5.319-2.964 2.574-2.321 4.847-4.056 6.578-1.742 1.736-4.742 1.851-5.749 1.73-0.822 1.775-2.743 5.255-6.07 8.091l1.766 0.406 7.359 1.694c1.454 0.335 2.156 0.874 2.22 1.409 0.068 0.559-1.619 1.069-3.07 1.391l-11.461 2.603-0.015 0.068-37.034-8.524 1.816-7.89 0.159 0.036c-10.06-13.561-12.799-35.549-17.352-56.292h53.929c-3.596 14.966-6.083 26.787-4.036 30.748 7.508 14.533 28.347 4.664 28.347 4.664s2.867 4.746-0.449 7.969" fill="#fff"/></g><g transform="translate(57.034 48.696)"><path d="m0 0c-1.725 0-3.124 1.396-3.124 3.123 0 1.594 1.196 2.892 2.734 3.084-0.027-0.151-0.043-0.308-0.043-0.468 0-1.445 1.171-2.616 2.616-2.616 0.326 0 0.635 0.067 0.922 0.176 4e-3 -0.06 0.019-0.115 0.019-0.176 0-1.725-1.399-3.123-3.124-3.123m0 8.551c-2.995 0-5.424-2.429-5.424-5.424s2.429-5.423 5.424-5.423 5.423 2.428 5.423 5.423-2.428 5.424-5.423 5.424" fill="#fff"/></g></g></g></svg>
