<svg id="Full_Color_White_Text" data-name="Full Color White Text" xmlns="http://www.w3.org/2000/svg" viewBox="0 0 416.7748 144.2033"><defs><style>.cls-1{fill:#424564;}.cls-2{fill:#fff;}.cls-3{fill:none;}.cls-4{fill:#86a4ca;}.cls-5{fill:#8f91ff;}.cls-6{fill:#6bdfab;}</style></defs><path class="cls-1" d="M98.7135,29.41c.0679-.43-.2162-.6741-.623-.5248l-10.474,3.83a.9139.9139,0,0,0-.5567,1.0387l.3614,1.57,10.7636-2.4775Z"/><path class="cls-1" d="M101.7071,34.3263l-3.3366-.7579-.0045-.02L87.5844,36.03l.5287,2.2971,10.7911-2.4838.908-.209,2.1422-.4931c.4234-.0975.6278-.2544.6467-.41C102.6206,34.5687,102.13,34.42,101.7071,34.3263Z"/><polygon class="cls-2" points="87.421 35.324 87.584 36.03 98.366 33.549 98.185 32.846 87.421 35.324"/><g id="eye"><circle class="cls-2" cx="96.7239" cy="39.6181" r="2.0785"/><path class="cls-3" d="M98.8024,39.6181a2.0785,2.0785,0,1,0-2.0785,2.0785A2.0789,2.0789,0,0,0,98.8024,39.6181Zm-2.0785.91a.9094.9094,0,1,1,.9093-.9093A.909.909,0,0,1,96.7239,40.5283Z"/><circle class="cls-1" cx="96.7239" cy="39.619" r="0.9094"/></g><circle class="cls-3" cx="96.7238" cy="39.6181" r="2.0785"/><path class="cls-1" d="M105.8858,44.3957a1.979,1.979,0,0,0-.1308-2.32c-.7276-.7066-1.1112-.92-1.8354-1.5483-.8628-.75-.6759-1.4115-1.1806-1.9153a2.2694,2.2694,0,0,0-1.6738-.5038,5.8362,5.8362,0,0,0-5.51-3.6208c-9.6064.4811-10.38,10.7965-12.4481,20.2177H98.8081c-1.0466-4.357-1.771-7.7984-1.1749-8.9517C99.8188,41.5228,105.8858,44.3957,105.8858,44.3957Zm-9.162-2.6991a2.0785,2.0785,0,1,1,2.0785-2.0785A2.0783,2.0783,0,0,1,96.7238,41.6966Z"/><path class="cls-1" d="M82.7,56.4608h16.533q-.219-.8991-.425-1.7555H83.1075Q82.9132,55.59,82.7,56.4608Z"/><path class="cls-3" d="M46.5448,95.46l.096-.0009.0057-.0027Z"/><path class="cls-1" d="M70.8854,85.02,69.42,78.1157l-.5421-1.2171a57.1306,57.1306,0,0,1-15.9358,9.1692c-.5747.23-1.2131.4595-1.894.6891-1.0123.3414-2.1232.6824-3.2876,1.0221-7.0832,2.0669-16.0632,4.0905-15.8036,5.9094.1225.8591,2.1715,1.3236,4.7012,1.5689q2.7533.166,5.6816.2249,2.097,0,4.2055-.0224l.1017-.0036-.0057.0027c12.2886-.1349,24.562-.9675,33.1123-4.4292l-2.7526-2.4856Z"/><path class="cls-1" d="M80.993,61.8249a18.7638,18.7638,0,0,1-1.3221,2.594,53.412,53.412,0,0,1-5.1346,6.952l2.4607,4.2838.49,4.5688,4.1967,1.8755,3.079,3.4133,3.83-.8117c2.1843-2.9959,3.1188-6.8033,2.3464-11.6646-.8622-5.4267-4.0748-9.91-9.1354-13.4071-.0384.1178-.0711.2409-.1107.3576Q81.3714,60.9321,80.993,61.8249Z"/><path class="cls-1" d="M80.6289,83.551l-4.78-2.136-.5581-5.2065-1.9958-3.4736q-1.5074,1.6028-3.0408,2.9738l.8631,1.9518,1.3226,6.23,5.6676,3.2881,3.4053,3.0743a20.9883,20.9883,0,0,0,5.08-3.3342l-2.457.52Z"/><path class="cls-4" d="M81.6832,82.099l-4.1967-1.8755-.49-4.5688-2.4607-4.2838c-.4109.47-.8252.9218-1.2409,1.364l1.9958,3.4736.5581,5.2065,4.78,2.136,3.5076,3.8882,2.457-.52a14.7778,14.7778,0,0,0,1.9986-2.2181l-3.83.8117Z"/><path class="cls-4" d="M78.1079,87.1786,72.44,83.8905l-1.3226-6.23-.8631-1.9518q-.6882.6174-1.3771,1.19l.5421,1.2171L70.8854,85.02l6.1151,3.5239L79.7531,91.03q.909-.3683,1.76-.7768Z"/><circle class="cls-2" cx="97.3594" cy="38.8575" r="0.7615"/><path class="cls-1" d="M83.5032,113.2034c-1.0042.4678-2.5823-.502-3.4926.0772-1.0418.6636-.96,2.082.8154,2.082a1.6377,1.6377,0,0,0,1.1894-.5433,2.2982,2.2982,0,0,0,1.1174.0834,1.7014,1.7014,0,0,0,.754-.417,4.18,4.18,0,0,0,1.4281.2669,1.9066,1.9066,0,0,0,1.3122-1.0111s2.4252,1.1594,7.0633.4257c0,0,2.7535,1.2121,2.8887-.1922.3089-3.1916-6.3918.0965-8.9207-1.695a11.1713,11.1713,0,0,1-3.8044-4.6262H81.3714C83.7261,109.6517,85.43,112.3041,83.5032,113.2034Z"/><path class="cls-4" d="M88.5921,84.7006a14.7778,14.7778,0,0,1-1.9986,2.2181,20.9866,20.9866,0,0,1-5.08,3.3342q-.8509.4088-1.76.7768c-8.55,3.4617-20.8237,4.2943-33.1123,4.4292-.0344.0166-1.5161.7315-3.615,1.7769-5.358,2.6687-14.7154,7.4807-14.1616,8.2714.7732,1.1043,10.382-2.2092,18.0035-3.8656s25.4652-3.8489,29.1588-.552c1.2833,1.1454,1.6651,4.09,3.5672,5.2638a14.8026,14.8026,0,0,1,1.7777,1.3H83.854a10.5307,10.5307,0,0,1-.2069-7.6693c2.8106-8.65,15.2422-8.5046,18.3354-21.4277a17.36,17.36,0,0,0,.3841-4.1571H91.1A14.4877,14.4877,0,0,1,88.5921,84.7006Z"/><path class="cls-5" d="M87.8149,65.43a17.9145,17.9145,0,0,1,3.1237,7.6057c.0742.4671.1187.9159.1618,1.3637h11.2662a51.0526,51.0526,0,0,0-1.09-8.9694Z"/><path class="cls-6" d="M99.2331,56.4608H82.7c-.1173.479-.2443.95-.373,1.42q-.2439.89-.524,1.7485A23.9037,23.9037,0,0,1,87.8149,65.43h13.4618C100.6764,62.3718,99.919,59.2764,99.2331,56.4608Z"/><path class="cls-2" d="M120.6412,79.2708c0-8.9931,7.291-14.7639,15.5532-14.7639a14.5268,14.5268,0,0,1,11.9687,6.0745l-5.9535,4.192a7.5258,7.5258,0,0,0-5.9543-2.8553,7.3835,7.3835,0,1,0,0,14.7639,7.5211,7.5211,0,0,0,5.9543-2.8553l5.9535,4.192a14.37,14.37,0,0,1-11.9687,6.0761C127.9322,94.0948,120.6412,88.2623,120.6412,79.2708Z"/><path class="cls-2" d="M151.6225,79.3309c0-8.9915,7.1692-14.824,15.25-14.824s15.2495,5.8325,15.2495,14.824c0,8.9314-7.1691,14.7639-15.2495,14.7639S151.6225,88.2623,151.6225,79.3309Zm22.4187,0a7.1715,7.1715,0,1,0-7.1692,7.3511A7.0917,7.0917,0,0,0,174.0412,79.3309Z"/><path class="cls-2" d="M216.0792,77.9942V93.5474h-7.9585V78.8453c0-4.4958-2.6735-6.5017-5.4078-6.5017-2.8553,0-6.379,1.5186-6.379,6.6836v14.52h-7.9585V65.2362h7.9585v4.7377c1.2149-3.8265,5.7106-5.467,8.5059-5.467C212.2518,64.5069,216.14,69.4883,216.0792,77.9942Z"/><path class="cls-2" d="M253.6214,93.5474h-7.9585V71.3724h-11.544v22.175H226.16V71.3724h-5.3468V65.2362H226.16V63.4739c0-8.5058,4.3739-13.3654,12.4551-13.3654h2.6726V57.52H240.195c-4.5566,0-6.0152,2.4915-6.0761,5.8925v1.824h19.5025ZM244.569,55.3936a4.8941,4.8941,0,0,1,5.0431-4.7394,4.7768,4.7768,0,1,1,0,9.5389A4.9435,4.9435,0,0,1,244.569,55.3936Z"/><path class="cls-2" d="M290.92,50.1085V93.5474h-7.9586V90.0229c-2.005,2.7953-5.9542,4.0719-9.1133,4.0719-7.291,0-13.9128-5.6506-13.9128-14.7639s6.6218-14.7639,13.9128-14.7639c3.2809,0,7.1083,1.2149,9.1133,4.07V50.1085Zm-8.2014,29.2224a7.3515,7.3515,0,1,0-7.3519,7.3511A7.3195,7.3195,0,0,0,282.7186,79.3309Z"/><path class="cls-2" d="M328.221,65.2362V93.5474h-7.96V90.0229c-2.0043,2.7953-5.9527,4.0719-9.1134,4.0719-7.29,0-13.912-5.6506-13.912-14.7639s6.6219-14.7639,13.912-14.7639c3.2809,0,7.1091,1.2149,9.1134,4.07v-3.401Zm-8.2021,14.0947a7.3515,7.3515,0,1,0-7.3511,7.3511A7.32,7.32,0,0,0,320.0189,79.3309Z"/><path class="cls-2" d="M363.94,77.9942V93.5474h-7.9585V78.8453c0-4.4958-2.6735-6.5017-5.4069-6.5017-2.8554,0-6.38,1.5186-6.38,6.6836v14.52h-7.9585V65.2362h7.9585v4.7377c1.2149-3.8265,5.7107-5.467,8.5059-5.467C360.1119,64.5069,364,69.4883,363.94,77.9942Z"/><path class="cls-2" d="M387.9341,71.3724h-6.016v22.175H373.96V71.3724h-5.1633V65.2362H373.96v-10.39h7.9585v10.39h6.016Z"/></svg>