<svg xmlns="http://www.w3.org/2000/svg" viewBox="0 0 324.9743 101.1203"><defs><style>.cls-1{fill:#8f91ff;}</style></defs><g id="Black_Text" data-name="Black Text"><path d="M28.8407,58.003c0-8.9932,7.291-14.7639,15.5532-14.7639a14.5271,14.5271,0,0,1,11.9687,6.0744l-5.9535,4.1921A7.5259,7.5259,0,0,0,44.4548,50.65a7.3835,7.3835,0,1,0,0,14.7639,7.5208,7.5208,0,0,0,5.9543-2.8553l5.9535,4.192A14.3694,14.3694,0,0,1,44.3939,72.827C36.1317,72.827,28.8407,66.9945,28.8407,58.003Z"/><path d="M59.822,58.0631c0-8.9915,7.1692-14.824,15.2495-14.824S90.321,49.0716,90.321,58.0631c0,8.9314-7.1692,14.7639-15.2495,14.7639S59.822,66.9945,59.822,58.0631Zm22.4187,0a7.1732,7.1732,0,1,0-14.3384,0,7.1714,7.1714,0,1,0,14.3384,0Z"/><path d="M124.2786,56.7264V72.28H116.32V57.5774c0-4.4957-2.6734-6.5016-5.4077-6.5016-2.8553,0-6.379,1.5186-6.379,6.6835V72.28H96.5749V43.9684h7.9585v4.7377c1.2149-3.8266,5.7106-5.467,8.5059-5.467C120.4512,43.2391,124.34,48.2205,124.2786,56.7264Z"/><path d="M161.8209,72.28h-7.9586V50.1045H142.3184V72.28H134.36V50.1045H129.013V43.9684H134.36V42.2061c0-8.5059,4.3739-13.3654,12.4551-13.3654h2.6726v7.4111h-1.0931c-4.5567,0-6.0152,2.4915-6.0761,5.8926v1.824h19.5025Zm-9.0525-38.1538a4.894,4.894,0,0,1,5.0432-4.7394,4.7768,4.7768,0,1,1,0,9.5388A4.9434,4.9434,0,0,1,152.7684,34.1258Z"/><path d="M199.1194,28.8407V72.28h-7.9585V68.7551c-2.005,2.7952-5.9543,4.0719-9.1133,4.0719-7.291,0-13.9128-5.6506-13.9128-14.7639s6.6218-14.7639,13.9128-14.7639c3.2809,0,7.1083,1.2149,9.1133,4.07V28.8407Zm-8.2013,29.2224a7.3515,7.3515,0,1,0-7.3519,7.351A7.3194,7.3194,0,0,0,190.9181,58.0631Z"/><path d="M236.4205,43.9684V72.28h-7.96V68.7551c-2.0042,2.7952-5.9526,4.0719-9.1133,4.0719-7.29,0-13.912-5.6506-13.912-14.7639s6.6218-14.7639,13.912-14.7639c3.2809,0,7.1091,1.2149,9.1133,4.07v-3.401Zm-8.2021,14.0947a7.3515,7.3515,0,1,0-7.3511,7.351A7.32,7.32,0,0,0,228.2184,58.0631Z"/><path d="M272.14,56.7264V72.28H264.181V57.5774c0-4.4957-2.6734-6.5016-5.4069-6.5016-2.8553,0-6.38,1.5186-6.38,6.6835V72.28h-7.9585V43.9684h7.9585v4.7377c1.2149-3.8266,5.7106-5.467,8.5059-5.467C268.3113,43.2391,272.2,48.2205,272.14,56.7264Z"/><path d="M296.1336,50.1045h-6.016V72.28h-7.9585V50.1045h-5.1633V43.9684h5.1633v-10.39h7.9585v10.39h6.016Z"/></g><g id="Purple_Text" data-name="Purple Text"><path class="cls-1" d="M28.8407,58.003c0-8.9932,7.291-14.7639,15.5532-14.7639a14.5271,14.5271,0,0,1,11.9687,6.0744l-5.9535,4.1921A7.5259,7.5259,0,0,0,44.4548,50.65a7.3835,7.3835,0,1,0,0,14.7639,7.5208,7.5208,0,0,0,5.9543-2.8553l5.9535,4.192A14.3694,14.3694,0,0,1,44.3939,72.827C36.1317,72.827,28.8407,66.9945,28.8407,58.003Z"/><path class="cls-1" d="M59.822,58.0631c0-8.9915,7.1692-14.824,15.2495-14.824S90.321,49.0716,90.321,58.0631c0,8.9314-7.1692,14.7639-15.2495,14.7639S59.822,66.9945,59.822,58.0631Zm22.4187,0a7.1732,7.1732,0,1,0-14.3384,0,7.1714,7.1714,0,1,0,14.3384,0Z"/><path class="cls-1" d="M124.2786,56.7264V72.28H116.32V57.5774c0-4.4957-2.6734-6.5016-5.4077-6.5016-2.8553,0-6.379,1.5186-6.379,6.6835V72.28H96.5749V43.9684h7.9585v4.7377c1.2149-3.8266,5.7106-5.467,8.5059-5.467C120.4512,43.2391,124.34,48.2205,124.2786,56.7264Z"/><path class="cls-1" d="M161.8209,72.28h-7.9586V50.1045H142.3184V72.28H134.36V50.1045H129.013V43.9684H134.36V42.2061c0-8.5059,4.3739-13.3654,12.4551-13.3654h2.6726v7.4111h-1.0931c-4.5567,0-6.0152,2.4915-6.0761,5.8926v1.824h19.5025Zm-9.0525-38.1538a4.894,4.894,0,0,1,5.0432-4.7394,4.7768,4.7768,0,1,1,0,9.5388A4.9434,4.9434,0,0,1,152.7684,34.1258Z"/><path class="cls-1" d="M199.1194,28.8407V72.28h-7.9585V68.7551c-2.005,2.7952-5.9543,4.0719-9.1133,4.0719-7.291,0-13.9128-5.6506-13.9128-14.7639s6.6218-14.7639,13.9128-14.7639c3.2809,0,7.1083,1.2149,9.1133,4.07V28.8407Zm-8.2013,29.2224a7.3515,7.3515,0,1,0-7.3519,7.351A7.3194,7.3194,0,0,0,190.9181,58.0631Z"/><path class="cls-1" d="M236.4205,43.9684V72.28h-7.96V68.7551c-2.0042,2.7952-5.9526,4.0719-9.1133,4.0719-7.29,0-13.912-5.6506-13.912-14.7639s6.6218-14.7639,13.912-14.7639c3.2809,0,7.1091,1.2149,9.1133,4.07v-3.401Zm-8.2021,14.0947a7.3515,7.3515,0,1,0-7.3511,7.351A7.32,7.32,0,0,0,228.2184,58.0631Z"/><path class="cls-1" d="M272.14,56.7264V72.28H264.181V57.5774c0-4.4957-2.6734-6.5016-5.4069-6.5016-2.8553,0-6.38,1.5186-6.38,6.6835V72.28h-7.9585V43.9684h7.9585v4.7377c1.2149-3.8266,5.7106-5.467,8.5059-5.467C268.3113,43.2391,272.2,48.2205,272.14,56.7264Z"/><path class="cls-1" d="M296.1336,50.1045h-6.016V72.28h-7.9585V50.1045h-5.1633V43.9684h5.1633v-10.39h7.9585v10.39h6.016Z"/></g></svg>